<?xml version="1.0" encoding="UTF-8" standalone="no"?>
<!-- Created with Inkscape (http://www.inkscape.org/) -->

<svg
   xmlns:dc="http://purl.org/dc/elements/1.1/"
   xmlns:cc="http://creativecommons.org/ns#"
   xmlns:rdf="http://www.w3.org/1999/02/22-rdf-syntax-ns#"
   xmlns:svg="http://www.w3.org/2000/svg"
   xmlns="http://www.w3.org/2000/svg"
   xmlns:xlink="http://www.w3.org/1999/xlink"
   xmlns:sodipodi="http://sodipodi.sourceforge.net/DTD/sodipodi-0.dtd"
   xmlns:inkscape="http://www.inkscape.org/namespaces/inkscape"
   width="184.59375"
   height="145"
   id="svg2"
   version="1.1"
   inkscape:version="0.48.3.1 r9886"
   sodipodi:docname="camera_icon_estilizado_nofeet.svg">
  <defs
     id="defs4">
    <linearGradient
       inkscape:collect="always"
       id="linearGradient3680">
      <stop
         style="stop-color:#babdb6;stop-opacity:1"
         offset="0"
         id="stop3682" />
      <stop
         id="stop3692"
         offset="0.20424372"
         style="stop-color:#dbded8;stop-opacity:1;" />
      <stop
         id="stop3688"
         offset="0.44099137"
         style="stop-color:#d3d7cf;stop-opacity:1" />
      <stop
         style="stop-color:#eeeeec;stop-opacity:1"
         offset="0.69693315"
         id="stop3690" />
      <stop
         style="stop-color:#babdb6;stop-opacity:1"
         offset="1"
         id="stop3684" />
    </linearGradient>
    <linearGradient
       inkscape:collect="always"
       id="linearGradient3658">
      <stop
         style="stop-color:#888a85;stop-opacity:1;"
         offset="0"
         id="stop3660" />
      <stop
         style="stop-color:#eeeeec;stop-opacity:1"
         offset="1"
         id="stop3662" />
    </linearGradient>
    <inkscape:perspective
       sodipodi:type="inkscape:persp3d"
       inkscape:vp_x="0 : 526.18109 : 1"
       inkscape:vp_y="0 : 1000 : 0"
       inkscape:vp_z="744.09448 : 526.18109 : 1"
       inkscape:persp3d-origin="372.04724 : 350.78739 : 1"
       id="perspective10" />
    <linearGradient
       inkscape:collect="always"
       xlink:href="#linearGradient3658"
       id="linearGradient3664"
       x1="483.3075"
       y1="16.779177"
       x2="483.3075"
       y2="66.326904"
       gradientUnits="userSpaceOnUse" />
    <linearGradient
       inkscape:collect="always"
       xlink:href="#linearGradient3658"
       id="linearGradient3668"
       gradientUnits="userSpaceOnUse"
       x1="483.3075"
       y1="16.779177"
       x2="483.3075"
       y2="66.326904" />
    <linearGradient
       inkscape:collect="always"
       xlink:href="#linearGradient3680"
       id="linearGradient3686"
       x1="487.19656"
       y1="24.228922"
       x2="499.59357"
       y2="87.50882"
       gradientUnits="userSpaceOnUse"
       gradientTransform="translate(-88.388348,30.405592)" />
  </defs>
  <sodipodi:namedview
     id="base"
     pagecolor="#ffffff"
     bordercolor="#666666"
     borderopacity="1.0"
     inkscape:pageopacity="0.0"
     inkscape:pageshadow="2"
     inkscape:zoom="2"
     inkscape:cx="159.68874"
     inkscape:cy="86.72498"
     inkscape:document-units="px"
     inkscape:current-layer="layer1"
     showgrid="false"
     inkscape:window-width="1920"
     inkscape:window-height="1181"
     inkscape:window-x="0"
     inkscape:window-y="0"
     inkscape:window-maximized="1"
     showguides="true"
     inkscape:guide-bbox="true"
     fit-margin-top="0"
     fit-margin-left="0"
     fit-margin-right="0"
     fit-margin-bottom="0" />
  <metadata
     id="metadata7">
    <rdf:RDF>
      <cc:Work
         rdf:about="">
        <dc:format>image/svg+xml</dc:format>
        <dc:type
           rdf:resource="http://purl.org/dc/dcmitype/StillImage" />
        <dc:title></dc:title>
      </cc:Work>
    </rdf:RDF>
  </metadata>
  <g
     inkscape:label="Capa 1"
     inkscape:groupmode="layer"
     id="layer1"
     transform="translate(-146.5,-151.8125)">
    <g
       id="g3081">
      <path
         id="path2829"
         transform="translate(129.375,151.8125)"
         d="M 127.21875,0 C 106.61926,0 89.5286,14.990747 86.25,34.65625 L 81.15625,35.625 C 75.166703,25.506696 64.145109,18.71875 51.53125,18.71875 32.52473,18.71875 17.125,34.11848 17.125,53.125 c 0,16.16142 11.13593,29.70893 26.15625,33.40625 l 0,3.84375 -6.96875,0 -0.03125,-0.3125 -8.25,-3.0625 -5.78125,0 9.125,19 3.375,-0.90625 1.875,-3.0625 6.65625,0 0,42.96875 119.59375,0 0,-71.4375 -9.1875,0 C 162.9044,65.942 168.78125,54.42461 168.78125,41.53125 168.78125,18.58555 150.16445,0 127.21875,0 z M 91.125,62.09375 c 2.496677,4.378917 5.760904,8.273929 9.625,11.46875 l -21.53125,0 C 81.472977,70.513213 83.222252,67.0783 84.375,63.375 z m 59.75,68.46875 c 2.07107,0 3.75,1.67893 3.75,3.75 0,2.07107 -1.67893,3.75 -3.75,3.75 -2.07107,0 -3.75,-1.67893 -3.75,-3.75 0,-2.07107 1.67893,-3.75 3.75,-3.75 z"
         style="fill:#000000;fill-opacity:1;stroke:none"
         inkscape:connector-curvature="0"
         sodipodi:nodetypes="sccssccccccccccccccsscccccsssss" />
      <path
         style="fill:#ffffff;fill-opacity:1;stroke:none"
         d="m 256,171.375 c -11.59798,0 -21,9.40202 -21,21 0,11.59798 9.40202,21 21,21 11.59798,0 21,-9.40202 21,-21 0,-11.59798 -9.40202,-21 -21,-21 z m -2.00521,6.19792 c 1.8794,0 3.40886,1.51122 3.40886,3.39062 0,1.8794 -1.52946,3.40886 -3.40886,3.40886 -1.8794,0 -3.40885,-1.52946 -3.40885,-3.40886 0,-1.8794 1.52945,-3.39062 3.40885,-3.39062 z m 10.51823,6.3802 c 1.8794,0 3.40885,1.52946 3.40885,3.40886 0,1.87939 -1.52945,3.40885 -3.40885,3.40885 -1.8794,0 -3.40885,-1.52946 -3.40885,-3.40885 0,-1.8794 1.52945,-3.40886 3.40885,-3.40886 z m -18.55729,2.67969 c 1.8794,0 3.39062,1.52946 3.39062,3.40886 0,1.87939 -1.51122,3.40885 -3.39062,3.40885 -1.8794,0 -3.40886,-1.52946 -3.40886,-3.40885 0,-1.8794 1.52946,-3.40886 3.40886,-3.40886 z m 17.31771,9.29688 c 1.8794,0 3.40885,1.51122 3.40885,3.39062 0,1.8794 -1.52945,3.40886 -3.40885,3.40886 -1.8794,0 -3.40886,-1.52946 -3.40886,-3.40886 0,-1.8794 1.52946,-3.39062 3.40886,-3.39062 z m -12.57813,2.05989 c 1.8794,0 3.40886,1.51123 3.40886,3.39063 0,1.87939 -1.52946,3.40885 -3.40886,3.40885 -1.8794,0 -3.40885,-1.52946 -3.40885,-3.40885 0,-1.8794 1.52945,-3.39063 3.40885,-3.39063 z"
         id="path3749"
         inkscape:connector-curvature="0" />
      <path
         id="path3751"
         d="m 181,186.375 c -9.38884,0 -17,7.61116 -17,17 0,9.38884 7.61116,17 17,17 9.38884,0 17,-7.61116 17,-17 0,-9.38884 -7.61116,-17 -17,-17 z m -1.62327,5.01736 c 1.52142,0 2.75956,1.22337 2.75956,2.74479 0,1.52142 -1.23814,2.75955 -2.75956,2.75955 -1.52141,0 -2.75954,-1.23813 -2.75954,-2.75955 0,-1.52142 1.23813,-2.74479 2.75954,-2.74479 z m 8.51476,5.16493 c 1.52142,0 2.75955,1.23813 2.75955,2.75955 0,1.52141 -1.23813,2.75955 -2.75955,2.75955 -1.52142,0 -2.75954,-1.23814 -2.75954,-2.75955 0,-1.52142 1.23812,-2.75955 2.75954,-2.75955 z m -15.02257,2.16927 c 1.52142,0 2.74479,1.23813 2.74479,2.75955 0,1.52141 -1.22337,2.75955 -2.74479,2.75955 -1.52141,0 -2.75955,-1.23814 -2.75955,-2.75955 0,-1.52142 1.23814,-2.75955 2.75955,-2.75955 z m 14.0191,7.52605 c 1.52142,0 2.75955,1.22336 2.75955,2.74478 0,1.52142 -1.23813,2.75956 -2.75955,2.75956 -1.52142,0 -2.75955,-1.23814 -2.75955,-2.75956 0,-1.52142 1.23813,-2.74478 2.75955,-2.74478 z m -10.18229,1.66753 c 1.52142,0 2.75955,1.22337 2.75955,2.74479 0,1.52141 -1.23813,2.75955 -2.75955,2.75955 -1.52142,0 -2.75955,-1.23814 -2.75955,-2.75955 0,-1.52142 1.23813,-2.74479 2.75955,-2.74479 z"
         style="fill:#ffffff;fill-opacity:1;stroke:none"
         inkscape:connector-curvature="0" />
      <path
         id="rect3789"
         d="M 331.09375,220.96875 310,233.75 l -16.5,0 0,31.84375 16.5,0 21.09375,12.78125 0,-57.40625 z"
         style="fill:#000000;fill-opacity:1;stroke:none"
         inkscape:connector-curvature="0" />
    </g>
  </g>
</svg>
